<?xml version="1.0" standalone="no"?><!DOCTYPE svg PUBLIC "-//W3C//DTD SVG 1.1//EN" "http://www.w3.org/Graphics/SVG/1.1/DTD/svg11.dtd"><svg t="1775814757711" class="icon" viewBox="0 0 1024 1024" version="1.1" xmlns="http://www.w3.org/2000/svg" p-id="2993" xmlns:xlink="http://www.w3.org/1999/xlink" width="200" height="200"><path d="M510.9 60.7c-245.6 0-446.7 199.8-446.7 446.7C64.2 753 263.9 954 510.8 954s446.6-199.7 446.6-446.6c0.1-245.6-199.6-446.7-446.5-446.7z m0 827.2c-209.2 0-380.5-171.4-380.5-380.5 0-209.2 171.4-379.2 380.5-379.2 209.2 0 379.2 170 379.2 379.2C890 716.5 720 887.9 510.9 887.9z" p-id="2994"></path><path d="M634.7 650.7H389.3c-8.8 0-16-7.2-16-16V389.3c0-8.8 7.2-16 16-16h245.5c8.8 0 16 7.2 16 16v245.5c-0.1 8.7-7.3 15.9-16.1 15.9z" p-id="2995"></path></svg>